# xmcd
# 
# Track frame offsets:
#     150
#     17557
#     37637
#     55990
#     76797
#     95512
#     101120
#     122800
#     139940
#     156545
#     178332
#     198237
#     218985
# 
# Disc length: 3140
# 
# Revision: 1
# Processed by: cddbd v1.5.2PL0 Copyright (c) Steve Scherf et al.
# Submitted via: fre:ac v1.0.31
# 
DISCID=b20c420d
DTITLE=MALTA - Best Collection[Disc 1]
DYEAR=1998
DGENRE=Fusion
TTITLE0=Shiny Lady
TTITLE1=Evening Calm
TTITLE2=Sweet Magic
TTITLE3=Sunset In My Heart
TTITLE4=Manhattan In Blue
TTITLE5=Summer Dreamin'
TTITLE6=Morning Flight
TTITLE7=Sea Express
TTITLE8=Scramble Avenue
TTITLE9=High Pressure
TTITLE10=The Only Name Missing Is ...
TTITLE11=Splashing Angel
TTITLE12=When You Wish Upon A Star(Leigh Harline-Ned Washington)
EXTD=VICP-41027
EXTT0=
EXTT1=
EXTT2=
EXTT3=
EXTT4=
EXTT5=
EXTT6=
EXTT7=
EXTT8=
EXTT9=
EXTT10=
EXTT11=
EXTT12=
PLAYORDER=
